<?xml version="1.0" encoding="UTF-8" standalone="no"?>
<!DOCTYPE svg PUBLIC "-//W3C//DTD SVG 1.1//EN"
 "http://www.w3.org/Graphics/SVG/1.1/DTD/svg11.dtd">
<!-- Generated by graphviz version 2.43.0 (0)
 -->
<!-- Title: PDA Pages: 1 -->
<svg width="294pt" height="748pt"
 viewBox="0.00 0.00 294.00 748.00" xmlns="http://www.w3.org/2000/svg" xmlns:xlink="http://www.w3.org/1999/xlink">
<g id="graph0" class="graph" transform="scale(1 1) rotate(0) translate(4 744)">
<title>PDA</title>
<polygon fill="white" stroke="transparent" points="-4,4 -4,-744 290,-744 290,4 -4,4"/>
<!-- q0 -->
<g id="node1" class="node">
<title>q0</title>
<ellipse fill="none" stroke="black" cx="227" cy="-722" rx="27" ry="18"/>
<text text-anchor="middle" x="227" y="-718.3" font-family="Times,serif" font-size="14.00">q0</text>
</g>
<!-- q3 -->
<g id="node4" class="node">
<title>q3</title>
<ellipse fill="none" stroke="black" cx="175" cy="-635" rx="27" ry="18"/>
<text text-anchor="middle" x="175" y="-631.3" font-family="Times,serif" font-size="14.00">q3</text>
</g>
<!-- q0&#45;&gt;q3 -->
<g id="edge1" class="edge">
<title>q0&#45;&gt;q3</title>
<path fill="none" stroke="black" d="M217.22,-705.01C209.59,-692.55 198.87,-675.01 190.13,-660.74"/>
<polygon fill="black" stroke="black" points="192.94,-658.62 184.74,-651.92 186.97,-662.27 192.94,-658.62"/>
<text text-anchor="middle" x="220" y="-674.8" font-family="Times,serif" font-size="14.00">x, x/x</text>
</g>
<!-- q4 -->
<g id="node5" class="node">
<title>q4</title>
<ellipse fill="none" stroke="black" cx="167" cy="-279" rx="27" ry="18"/>
<text text-anchor="middle" x="167" y="-275.3" font-family="Times,serif" font-size="14.00">q4</text>
</g>
<!-- q0&#45;&gt;q4 -->
<g id="edge2" class="edge">
<title>q0&#45;&gt;q4</title>
<path fill="none" stroke="black" d="M235.71,-704.91C243.93,-688.18 255,-661.01 255,-636 255,-636 255,-636 255,-365 255,-332.46 223.49,-308.43 198.18,-294.37"/>
<polygon fill="black" stroke="black" points="199.69,-291.21 189.21,-289.65 196.42,-297.4 199.69,-291.21"/>
<text text-anchor="middle" x="270.5" y="-500.8" font-family="Times,serif" font-size="14.00">y, x/x</text>
</g>
<!-- q1 -->
<g id="node2" class="node">
<title>q1</title>
<ellipse fill="none" stroke="black" cx="79" cy="-457" rx="27" ry="18"/>
<ellipse fill="none" stroke="black" cx="79" cy="-457" rx="31" ry="22"/>
<text text-anchor="middle" x="79" y="-453.3" font-family="Times,serif" font-size="14.00">q1</text>
</g>
<!-- q5 -->
<g id="node6" class="node">
<title>q5</title>
<ellipse fill="none" stroke="black" cx="200" cy="-366" rx="27" ry="18"/>
<text text-anchor="middle" x="200" y="-362.3" font-family="Times,serif" font-size="14.00">q5</text>
</g>
<!-- q1&#45;&gt;q5 -->
<g id="edge3" class="edge">
<title>q1&#45;&gt;q5</title>
<path fill="none" stroke="black" d="M73.89,-435.1C72.48,-424.19 72.94,-411.24 80,-402 99.11,-377.01 135.06,-369.1 162.65,-366.94"/>
<polygon fill="black" stroke="black" points="162.97,-370.42 172.76,-366.37 162.58,-363.43 162.97,-370.42"/>
<text text-anchor="middle" x="101.5" y="-405.8" font-family="Times,serif" font-size="14.00">p, x/5 x</text>
</g>
<!-- q2 -->
<g id="node3" class="node">
<title>q2</title>
<ellipse fill="none" stroke="black" cx="145" cy="-548" rx="27" ry="18"/>
<text text-anchor="middle" x="145" y="-544.3" font-family="Times,serif" font-size="14.00">q2</text>
</g>
<!-- q2&#45;&gt;q1 -->
<g id="edge6" class="edge">
<title>q2&#45;&gt;q1</title>
<path fill="none" stroke="black" d="M127.73,-533.93C120.42,-527.81 112.18,-520.1 106,-512 100.32,-504.55 95.32,-495.72 91.21,-487.39"/>
<polygon fill="black" stroke="black" points="94.36,-485.86 86.96,-478.28 88.01,-488.82 94.36,-485.86"/>
<text text-anchor="middle" x="118.5" y="-500.8" font-family="Times,serif" font-size="14.00">ε, 0/</text>
</g>
<!-- q3&#45;&gt;q2 -->
<g id="edge7" class="edge">
<title>q3&#45;&gt;q2</title>
<path fill="none" stroke="black" d="M164.5,-618.15C161.04,-612.33 157.45,-605.55 155,-599 152.27,-591.7 150.23,-583.52 148.74,-575.91"/>
<polygon fill="black" stroke="black" points="152.18,-575.29 147.02,-566.04 145.29,-576.49 152.18,-575.29"/>
<text text-anchor="middle" x="170.5" y="-587.8" font-family="Times,serif" font-size="14.00">ε, 0/x</text>
</g>
<!-- q6 -->
<g id="node7" class="node">
<title>q6</title>
<ellipse fill="none" stroke="black" cx="101" cy="-192" rx="27" ry="18"/>
<text text-anchor="middle" x="101" y="-188.3" font-family="Times,serif" font-size="14.00">q6</text>
</g>
<!-- q3&#45;&gt;q6 -->
<g id="edge8" class="edge">
<title>q3&#45;&gt;q6</title>
<path fill="none" stroke="black" d="M148.04,-632.91C98.95,-629.32 0,-614.02 0,-549 0,-549 0,-549 0,-278 0,-253.35 6.39,-245.25 24,-228 35.76,-216.48 51.99,-208.34 66.52,-202.82"/>
<polygon fill="black" stroke="black" points="67.95,-206.03 76.23,-199.42 65.64,-199.42 67.95,-206.03"/>
<text text-anchor="middle" x="15.5" y="-405.8" font-family="Times,serif" font-size="14.00">ε, 5/x</text>
</g>
<!-- q4&#45;&gt;q2 -->
<g id="edge9" class="edge">
<title>q4&#45;&gt;q2</title>
<path fill="none" stroke="black" d="M165.17,-296.96C162.67,-320.51 158.14,-364.46 155,-402 151.59,-442.8 148.48,-490.14 146.67,-519.33"/>
<polygon fill="black" stroke="black" points="143.16,-519.38 146.04,-529.58 150.14,-519.81 143.16,-519.38"/>
<text text-anchor="middle" x="170.5" y="-405.8" font-family="Times,serif" font-size="14.00">ε, 0/x</text>
</g>
<!-- q4&#45;&gt;q6 -->
<g id="edge10" class="edge">
<title>q4&#45;&gt;q6</title>
<path fill="none" stroke="black" d="M155.2,-262.8C145.22,-249.95 130.75,-231.32 119.28,-216.54"/>
<polygon fill="black" stroke="black" points="121.82,-214.1 112.92,-208.35 116.29,-218.4 121.82,-214.1"/>
<text text-anchor="middle" x="153.5" y="-231.8" font-family="Times,serif" font-size="14.00">ε, 5/x</text>
</g>
<!-- q5&#45;&gt;q3 -->
<g id="edge4" class="edge">
<title>q5&#45;&gt;q3</title>
<path fill="none" stroke="black" d="M200.38,-384.05C200.95,-422.68 200.64,-519.64 186,-599 185.5,-601.72 184.85,-604.53 184.12,-607.32"/>
<polygon fill="black" stroke="black" points="180.7,-606.54 181.22,-617.12 187.41,-608.52 180.7,-606.54"/>
<text text-anchor="middle" x="213" y="-500.8" font-family="Times,serif" font-size="14.00">x, x/x</text>
</g>
<!-- q5&#45;&gt;q4 -->
<g id="edge5" class="edge">
<title>q5&#45;&gt;q4</title>
<path fill="none" stroke="black" d="M193.48,-348.21C188.82,-336.22 182.47,-319.85 177.16,-306.16"/>
<polygon fill="black" stroke="black" points="180.39,-304.81 173.51,-296.76 173.86,-307.35 180.39,-304.81"/>
<text text-anchor="middle" x="200.5" y="-318.8" font-family="Times,serif" font-size="14.00">y, x/x</text>
</g>
<!-- q11 -->
<g id="node8" class="node">
<title>q11</title>
<ellipse fill="none" stroke="black" cx="101" cy="-105" rx="27" ry="18"/>
<text text-anchor="middle" x="101" y="-101.3" font-family="Times,serif" font-size="14.00">q11</text>
</g>
<!-- q6&#45;&gt;q11 -->
<g id="edge11" class="edge">
<title>q6&#45;&gt;q11</title>
<path fill="none" stroke="black" d="M101,-173.8C101,-162.16 101,-146.55 101,-133.24"/>
<polygon fill="black" stroke="black" points="104.5,-133.18 101,-123.18 97.5,-133.18 104.5,-133.18"/>
<text text-anchor="middle" x="113.5" y="-144.8" font-family="Times,serif" font-size="14.00">ε, 5/</text>
</g>
<!-- q12 -->
<g id="node9" class="node">
<title>q12</title>
<ellipse fill="none" stroke="black" cx="62" cy="-18" rx="27" ry="18"/>
<text text-anchor="middle" x="62" y="-14.3" font-family="Times,serif" font-size="14.00">q12</text>
</g>
<!-- q11&#45;&gt;q12 -->
<g id="edge12" class="edge">
<title>q11&#45;&gt;q12</title>
<path fill="none" stroke="black" d="M93.48,-87.61C87.87,-75.38 80.1,-58.44 73.68,-44.46"/>
<polygon fill="black" stroke="black" points="76.85,-42.97 69.5,-35.34 70.49,-45.89 76.85,-42.97"/>
<text text-anchor="middle" x="96.5" y="-57.8" font-family="Times,serif" font-size="14.00">ε, 1/</text>
</g>
<!-- q12&#45;&gt;q1 -->
<g id="edge13" class="edge">
<title>q12&#45;&gt;q1</title>
<path fill="none" stroke="black" d="M56.94,-35.76C52.25,-52.78 46,-79.97 46,-104 46,-367 46,-367 46,-367 46,-388.08 54.24,-410.31 62.48,-427.28"/>
<polygon fill="black" stroke="black" points="59.59,-429.32 67.27,-436.62 65.82,-426.12 59.59,-429.32"/>
<text text-anchor="middle" x="58.5" y="-231.8" font-family="Times,serif" font-size="14.00">ε, 0/</text>
</g>
</g>
</svg>
