<?xml version="1.0" encoding="UTF-8" standalone="no"?>
<!DOCTYPE svg PUBLIC "-//W3C//DTD SVG 1.1//EN"
 "http://www.w3.org/Graphics/SVG/1.1/DTD/svg11.dtd">
<!-- Generated by graphviz version 2.43.0 (0)
 -->
<!-- Title: PDA Pages: 1 -->
<svg width="184pt" height="661pt"
 viewBox="0.00 0.00 184.00 661.00" xmlns="http://www.w3.org/2000/svg" xmlns:xlink="http://www.w3.org/1999/xlink">
<g id="graph0" class="graph" transform="scale(1 1) rotate(0) translate(4 657)">
<title>PDA</title>
<polygon fill="white" stroke="transparent" points="-4,4 -4,-657 180,-657 180,4 -4,4"/>
<!-- q0 -->
<g id="node1" class="node">
<title>q0</title>
<ellipse fill="none" stroke="black" cx="42" cy="-635" rx="27" ry="18"/>
<text text-anchor="middle" x="42" y="-631.3" font-family="Times,serif" font-size="14.00">q0</text>
</g>
<!-- q2 -->
<g id="node3" class="node">
<title>q2</title>
<ellipse fill="none" stroke="black" cx="31" cy="-461" rx="27" ry="18"/>
<text text-anchor="middle" x="31" y="-457.3" font-family="Times,serif" font-size="14.00">q2</text>
</g>
<!-- q0&#45;&gt;q2 -->
<g id="edge1" class="edge">
<title>q0&#45;&gt;q2</title>
<path fill="none" stroke="black" d="M36.25,-617.2C31.91,-603.58 26.32,-583.8 24,-566 20.62,-540.02 23.3,-510.17 26.27,-489.13"/>
<polygon fill="black" stroke="black" points="29.77,-489.41 27.82,-479 22.85,-488.35 29.77,-489.41"/>
<text text-anchor="middle" x="39.5" y="-544.3" font-family="Times,serif" font-size="14.00">a, x/x</text>
</g>
<!-- q3 -->
<g id="node4" class="node">
<title>q3</title>
<ellipse fill="none" stroke="black" cx="91" cy="-548" rx="27" ry="18"/>
<text text-anchor="middle" x="91" y="-544.3" font-family="Times,serif" font-size="14.00">q3</text>
</g>
<!-- q0&#45;&gt;q3 -->
<g id="edge2" class="edge">
<title>q0&#45;&gt;q3</title>
<path fill="none" stroke="black" d="M51.22,-618.01C58.36,-605.63 68.38,-588.23 76.58,-574.01"/>
<polygon fill="black" stroke="black" points="79.7,-575.62 81.66,-565.21 73.63,-572.12 79.7,-575.62"/>
<text text-anchor="middle" x="89" y="-587.8" font-family="Times,serif" font-size="14.00">l, x/3 x</text>
</g>
<!-- q1 -->
<g id="node2" class="node">
<title>q1</title>
<ellipse fill="none" stroke="black" cx="31" cy="-22" rx="27" ry="18"/>
<ellipse fill="none" stroke="black" cx="31" cy="-22" rx="31" ry="22"/>
<text text-anchor="middle" x="31" y="-18.3" font-family="Times,serif" font-size="14.00">q1</text>
</g>
<!-- q2&#45;&gt;q1 -->
<g id="edge6" class="edge">
<title>q2&#45;&gt;q1</title>
<path fill="none" stroke="black" d="M25.94,-443.24C21.25,-426.22 15,-399.03 15,-375 15,-375 15,-375 15,-112 15,-92.37 18.82,-70.68 22.72,-53.63"/>
<polygon fill="black" stroke="black" points="26.18,-54.21 25.13,-43.67 19.38,-52.57 26.18,-54.21"/>
<text text-anchor="middle" x="27.5" y="-239.8" font-family="Times,serif" font-size="14.00">ε, 0/</text>
</g>
<!-- q4 -->
<g id="node5" class="node">
<title>q4</title>
<ellipse fill="none" stroke="black" cx="70" cy="-374" rx="27" ry="18"/>
<text text-anchor="middle" x="70" y="-370.3" font-family="Times,serif" font-size="14.00">q4</text>
</g>
<!-- q2&#45;&gt;q4 -->
<g id="edge7" class="edge">
<title>q2&#45;&gt;q4</title>
<path fill="none" stroke="black" d="M38.52,-443.61C44.13,-431.38 51.9,-414.44 58.32,-400.46"/>
<polygon fill="black" stroke="black" points="61.51,-401.89 62.5,-391.34 55.15,-398.97 61.51,-401.89"/>
<text text-anchor="middle" x="73" y="-413.8" font-family="Times,serif" font-size="14.00">ε, 3/4 3</text>
</g>
<!-- q3&#45;&gt;q2 -->
<g id="edge3" class="edge">
<title>q3&#45;&gt;q2</title>
<path fill="none" stroke="black" d="M80,-531.41C71.03,-518.71 58.22,-500.56 47.95,-486.01"/>
<polygon fill="black" stroke="black" points="50.56,-483.64 41.94,-477.49 44.84,-487.68 50.56,-483.64"/>
<text text-anchor="middle" x="79.5" y="-500.8" font-family="Times,serif" font-size="14.00">a, x/x</text>
</g>
<!-- q3&#45;&gt;q3 -->
<g id="edge4" class="edge">
<title>q3&#45;&gt;q3</title>
<path fill="none" stroke="black" d="M115.53,-555.75C126.51,-556.49 136,-553.91 136,-548 136,-544.03 131.72,-541.56 125.57,-540.59"/>
<polygon fill="black" stroke="black" points="125.65,-537.09 115.53,-540.25 125.41,-544.09 125.65,-537.09"/>
<text text-anchor="middle" x="156" y="-544.3" font-family="Times,serif" font-size="14.00">l, x/3 x</text>
</g>
<!-- q5 -->
<g id="node6" class="node">
<title>q5</title>
<ellipse fill="none" stroke="black" cx="70" cy="-287" rx="27" ry="18"/>
<text text-anchor="middle" x="70" y="-283.3" font-family="Times,serif" font-size="14.00">q5</text>
</g>
<!-- q4&#45;&gt;q5 -->
<g id="edge5" class="edge">
<title>q4&#45;&gt;q5</title>
<path fill="none" stroke="black" d="M70,-355.8C70,-344.16 70,-328.55 70,-315.24"/>
<polygon fill="black" stroke="black" points="73.5,-315.18 70,-305.18 66.5,-315.18 73.5,-315.18"/>
<text text-anchor="middle" x="84.5" y="-326.8" font-family="Times,serif" font-size="14.00">j, x/x</text>
</g>
<!-- q8 -->
<g id="node7" class="node">
<title>q8</title>
<ellipse fill="none" stroke="black" cx="70" cy="-200" rx="27" ry="18"/>
<text text-anchor="middle" x="70" y="-196.3" font-family="Times,serif" font-size="14.00">q8</text>
</g>
<!-- q5&#45;&gt;q8 -->
<g id="edge8" class="edge">
<title>q5&#45;&gt;q8</title>
<path fill="none" stroke="black" d="M70,-268.8C70,-257.16 70,-241.55 70,-228.24"/>
<polygon fill="black" stroke="black" points="73.5,-228.18 70,-218.18 66.5,-228.18 73.5,-228.18"/>
<text text-anchor="middle" x="82.5" y="-239.8" font-family="Times,serif" font-size="14.00">ε, 4/</text>
</g>
<!-- q9 -->
<g id="node8" class="node">
<title>q9</title>
<ellipse fill="none" stroke="black" cx="70" cy="-113" rx="27" ry="18"/>
<text text-anchor="middle" x="70" y="-109.3" font-family="Times,serif" font-size="14.00">q9</text>
</g>
<!-- q8&#45;&gt;q9 -->
<g id="edge9" class="edge">
<title>q8&#45;&gt;q9</title>
<path fill="none" stroke="black" d="M70,-181.8C70,-170.16 70,-154.55 70,-141.24"/>
<polygon fill="black" stroke="black" points="73.5,-141.18 70,-131.18 66.5,-141.18 73.5,-141.18"/>
<text text-anchor="middle" x="82.5" y="-152.8" font-family="Times,serif" font-size="14.00">ε, 3/</text>
</g>
<!-- q9&#45;&gt;q1 -->
<g id="edge10" class="edge">
<title>q9&#45;&gt;q1</title>
<path fill="none" stroke="black" d="M62.66,-95.26C57.43,-83.31 50.25,-66.92 44.05,-52.77"/>
<polygon fill="black" stroke="black" points="47.17,-51.17 39.95,-43.41 40.75,-53.98 47.17,-51.17"/>
<text text-anchor="middle" x="65.5" y="-65.8" font-family="Times,serif" font-size="14.00">ε, 0/</text>
</g>
<!-- q9&#45;&gt;q4 -->
<g id="edge11" class="edge">
<title>q9&#45;&gt;q4</title>
<path fill="none" stroke="black" d="M84.45,-128.21C89.76,-134.17 95.36,-141.47 99,-149 105.53,-162.5 104.44,-167.09 106,-182 115.61,-273.63 114.54,-312.39 103,-338 100.68,-343.14 97.3,-348 93.56,-352.38"/>
<polygon fill="black" stroke="black" points="90.97,-350.02 86.62,-359.68 96.05,-354.84 90.97,-350.02"/>
<text text-anchor="middle" x="132" y="-239.8" font-family="Times,serif" font-size="14.00">ε, 3/4 3</text>
</g>
</g>
</svg>
