<?xml version="1.0" encoding="UTF-8" standalone="no"?>
<!DOCTYPE svg PUBLIC "-//W3C//DTD SVG 1.1//EN"
 "http://www.w3.org/Graphics/SVG/1.1/DTD/svg11.dtd">
<!-- Generated by graphviz version 2.43.0 (0)
 -->
<!-- Title: PDA Pages: 1 -->
<svg width="459pt" height="748pt"
 viewBox="0.00 0.00 459.00 748.00" xmlns="http://www.w3.org/2000/svg" xmlns:xlink="http://www.w3.org/1999/xlink">
<g id="graph0" class="graph" transform="scale(1 1) rotate(0) translate(4 744)">
<title>PDA</title>
<polygon fill="white" stroke="transparent" points="-4,4 -4,-744 455,-744 455,4 -4,4"/>
<!-- q0 -->
<g id="node1" class="node">
<title>q0</title>
<ellipse fill="none" stroke="black" cx="373" cy="-722" rx="27" ry="18"/>
<text text-anchor="middle" x="373" y="-718.3" font-family="Times,serif" font-size="14.00">q0</text>
</g>
<!-- q3 -->
<g id="node4" class="node">
<title>q3</title>
<ellipse fill="none" stroke="black" cx="300" cy="-635" rx="27" ry="18"/>
<text text-anchor="middle" x="300" y="-631.3" font-family="Times,serif" font-size="14.00">q3</text>
</g>
<!-- q0&#45;&gt;q3 -->
<g id="edge1" class="edge">
<title>q0&#45;&gt;q3</title>
<path fill="none" stroke="black" d="M359.95,-705.8C348.74,-692.75 332.41,-673.74 319.62,-658.85"/>
<polygon fill="black" stroke="black" points="322.11,-656.37 312.94,-651.06 316.8,-660.93 322.11,-656.37"/>
<text text-anchor="middle" x="356" y="-674.8" font-family="Times,serif" font-size="14.00">x, x/x</text>
</g>
<!-- q4 -->
<g id="node5" class="node">
<title>q4</title>
<ellipse fill="none" stroke="black" cx="249" cy="-279" rx="27" ry="18"/>
<text text-anchor="middle" x="249" y="-275.3" font-family="Times,serif" font-size="14.00">q4</text>
</g>
<!-- q0&#45;&gt;q4 -->
<g id="edge2" class="edge">
<title>q0&#45;&gt;q4</title>
<path fill="none" stroke="black" d="M387.1,-706.38C400.95,-690.43 420,-663.49 420,-636 420,-636 420,-636 420,-365 420,-305.73 336.6,-287.79 286.29,-282.36"/>
<polygon fill="black" stroke="black" points="286.38,-278.85 276.1,-281.38 285.71,-285.82 286.38,-278.85"/>
<text text-anchor="middle" x="435.5" y="-500.8" font-family="Times,serif" font-size="14.00">y, x/x</text>
</g>
<!-- q1 -->
<g id="node2" class="node">
<title>q1</title>
<ellipse fill="none" stroke="black" cx="156" cy="-457" rx="27" ry="18"/>
<ellipse fill="none" stroke="black" cx="156" cy="-457" rx="31" ry="22"/>
<text text-anchor="middle" x="156" y="-453.3" font-family="Times,serif" font-size="14.00">q1</text>
</g>
<!-- q5 -->
<g id="node6" class="node">
<title>q5</title>
<ellipse fill="none" stroke="black" cx="177" cy="-366" rx="27" ry="18"/>
<text text-anchor="middle" x="177" y="-362.3" font-family="Times,serif" font-size="14.00">q5</text>
</g>
<!-- q1&#45;&gt;q5 -->
<g id="edge3" class="edge">
<title>q1&#45;&gt;q5</title>
<path fill="none" stroke="black" d="M153.41,-434.88C152.82,-424.76 153.07,-412.57 156,-402 157,-398.37 158.5,-394.74 160.23,-391.27"/>
<polygon fill="black" stroke="black" points="163.29,-392.96 165.22,-382.54 157.22,-389.49 163.29,-392.96"/>
<text text-anchor="middle" x="179.5" y="-405.8" font-family="Times,serif" font-size="14.00">m, x/5 x</text>
</g>
<!-- q6 -->
<g id="node7" class="node">
<title>q6</title>
<ellipse fill="none" stroke="black" cx="249" cy="-366" rx="27" ry="18"/>
<text text-anchor="middle" x="249" y="-362.3" font-family="Times,serif" font-size="14.00">q6</text>
</g>
<!-- q1&#45;&gt;q6 -->
<g id="edge4" class="edge">
<title>q1&#45;&gt;q6</title>
<path fill="none" stroke="black" d="M176.17,-440.25C184.68,-433.36 194.54,-425.03 203,-417 212.03,-408.42 221.45,-398.4 229.39,-389.6"/>
<polygon fill="black" stroke="black" points="232.18,-391.73 236.21,-381.93 226.95,-387.07 232.18,-391.73"/>
<text text-anchor="middle" x="238.5" y="-405.8" font-family="Times,serif" font-size="14.00">p, x/6 x</text>
</g>
<!-- q2 -->
<g id="node3" class="node">
<title>q2</title>
<ellipse fill="none" stroke="black" cx="272" cy="-548" rx="27" ry="18"/>
<text text-anchor="middle" x="272" y="-544.3" font-family="Times,serif" font-size="14.00">q2</text>
</g>
<!-- q2&#45;&gt;q1 -->
<g id="edge9" class="edge">
<title>q2&#45;&gt;q1</title>
<path fill="none" stroke="black" d="M254.88,-533.87C236.44,-519.72 206.78,-496.96 184.75,-480.06"/>
<polygon fill="black" stroke="black" points="186.78,-477.21 176.72,-473.9 182.52,-482.76 186.78,-477.21"/>
<text text-anchor="middle" x="236.5" y="-500.8" font-family="Times,serif" font-size="14.00">ε, 0/</text>
</g>
<!-- q3&#45;&gt;q2 -->
<g id="edge10" class="edge">
<title>q3&#45;&gt;q2</title>
<path fill="none" stroke="black" d="M290.61,-618.04C287.49,-612.2 284.25,-605.45 282,-599 279.43,-591.65 277.45,-583.44 275.95,-575.84"/>
<polygon fill="black" stroke="black" points="279.39,-575.21 274.2,-565.98 272.5,-576.44 279.39,-575.21"/>
<text text-anchor="middle" x="297.5" y="-587.8" font-family="Times,serif" font-size="14.00">ε, 0/x</text>
</g>
<!-- q7 -->
<g id="node8" class="node">
<title>q7</title>
<ellipse fill="none" stroke="black" cx="249" cy="-192" rx="27" ry="18"/>
<text text-anchor="middle" x="249" y="-188.3" font-family="Times,serif" font-size="14.00">q7</text>
</g>
<!-- q3&#45;&gt;q7 -->
<g id="edge11" class="edge">
<title>q3&#45;&gt;q7</title>
<path fill="none" stroke="black" d="M319.83,-622.68C341.75,-608.52 374,-582.07 374,-549 374,-549 374,-549 374,-278 374,-234.46 321.5,-211.66 284.55,-201"/>
<polygon fill="black" stroke="black" points="285.16,-197.54 274.6,-198.3 283.34,-204.29 285.16,-197.54"/>
<text text-anchor="middle" x="389.5" y="-405.8" font-family="Times,serif" font-size="14.00">ε, 5/x</text>
</g>
<!-- q8 -->
<g id="node9" class="node">
<title>q8</title>
<ellipse fill="none" stroke="black" cx="101" cy="-192" rx="27" ry="18"/>
<text text-anchor="middle" x="101" y="-188.3" font-family="Times,serif" font-size="14.00">q8</text>
</g>
<!-- q3&#45;&gt;q8 -->
<g id="edge12" class="edge">
<title>q3&#45;&gt;q8</title>
<path fill="none" stroke="black" d="M273.11,-632.16C199.48,-626.38 0,-605.5 0,-549 0,-549 0,-549 0,-278 0,-253.35 6.39,-245.25 24,-228 35.76,-216.48 51.99,-208.34 66.52,-202.82"/>
<polygon fill="black" stroke="black" points="67.95,-206.03 76.23,-199.42 65.64,-199.42 67.95,-206.03"/>
<text text-anchor="middle" x="15.5" y="-405.8" font-family="Times,serif" font-size="14.00">ε, 6/x</text>
</g>
<!-- q4&#45;&gt;q2 -->
<g id="edge13" class="edge">
<title>q4&#45;&gt;q2</title>
<path fill="none" stroke="black" d="M266.88,-293.03C273.51,-298.92 280.32,-306.48 284,-315 313.92,-384.24 293.72,-476.12 280.66,-520.62"/>
<polygon fill="black" stroke="black" points="277.26,-519.78 277.69,-530.37 283.95,-521.83 277.26,-519.78"/>
<text text-anchor="middle" x="314.5" y="-405.8" font-family="Times,serif" font-size="14.00">ε, 0/x</text>
</g>
<!-- q4&#45;&gt;q7 -->
<g id="edge14" class="edge">
<title>q4&#45;&gt;q7</title>
<path fill="none" stroke="black" d="M249,-260.8C249,-249.16 249,-233.55 249,-220.24"/>
<polygon fill="black" stroke="black" points="252.5,-220.18 249,-210.18 245.5,-220.18 252.5,-220.18"/>
<text text-anchor="middle" x="264.5" y="-231.8" font-family="Times,serif" font-size="14.00">ε, 5/x</text>
</g>
<!-- q4&#45;&gt;q8 -->
<g id="edge15" class="edge">
<title>q4&#45;&gt;q8</title>
<path fill="none" stroke="black" d="M229.04,-266.54C203.55,-251.9 159.26,-226.46 130.03,-209.67"/>
<polygon fill="black" stroke="black" points="131.53,-206.5 121.12,-204.55 128.04,-212.57 131.53,-206.5"/>
<text text-anchor="middle" x="198.5" y="-231.8" font-family="Times,serif" font-size="14.00">ε, 6/x</text>
</g>
<!-- q5&#45;&gt;q3 -->
<g id="edge5" class="edge">
<title>q5&#45;&gt;q3</title>
<path fill="none" stroke="black" d="M159.82,-379.92C145.03,-392.22 124.73,-412.19 116,-435 109.01,-453.26 107.75,-461.27 116,-479 147.76,-547.27 226.03,-596.25 269.56,-619.26"/>
<polygon fill="black" stroke="black" points="268.06,-622.42 278.55,-623.9 271.27,-616.2 268.06,-622.42"/>
<text text-anchor="middle" x="150" y="-500.8" font-family="Times,serif" font-size="14.00">x, x/x</text>
</g>
<!-- q5&#45;&gt;q4 -->
<g id="edge6" class="edge">
<title>q5&#45;&gt;q4</title>
<path fill="none" stroke="black" d="M187.76,-349.23C194.86,-339.15 204.55,-325.96 214,-315 217.95,-310.41 222.38,-305.7 226.72,-301.28"/>
<polygon fill="black" stroke="black" points="229.24,-303.71 233.85,-294.18 224.3,-298.75 229.24,-303.71"/>
<text text-anchor="middle" x="229.5" y="-318.8" font-family="Times,serif" font-size="14.00">y, x/x</text>
</g>
<!-- q6&#45;&gt;q3 -->
<g id="edge7" class="edge">
<title>q6&#45;&gt;q3</title>
<path fill="none" stroke="black" d="M274.62,-371.79C291.52,-376.43 312.43,-385.31 323,-402 334.73,-420.52 317.47,-577.54 313,-599 312.39,-601.92 311.59,-604.91 310.67,-607.86"/>
<polygon fill="black" stroke="black" points="307.27,-606.97 307.26,-617.57 313.88,-609.29 307.27,-606.97"/>
<text text-anchor="middle" x="340" y="-500.8" font-family="Times,serif" font-size="14.00">x, x/x</text>
</g>
<!-- q6&#45;&gt;q4 -->
<g id="edge8" class="edge">
<title>q6&#45;&gt;q4</title>
<path fill="none" stroke="black" d="M249,-347.8C249,-336.16 249,-320.55 249,-307.24"/>
<polygon fill="black" stroke="black" points="252.5,-307.18 249,-297.18 245.5,-307.18 252.5,-307.18"/>
<text text-anchor="middle" x="264.5" y="-318.8" font-family="Times,serif" font-size="14.00">y, x/x</text>
</g>
<!-- q13 -->
<g id="node10" class="node">
<title>q13</title>
<ellipse fill="none" stroke="black" cx="230" cy="-105" rx="27" ry="18"/>
<text text-anchor="middle" x="230" y="-101.3" font-family="Times,serif" font-size="14.00">q13</text>
</g>
<!-- q7&#45;&gt;q13 -->
<g id="edge16" class="edge">
<title>q7&#45;&gt;q13</title>
<path fill="none" stroke="black" d="M245.16,-173.8C242.54,-162.09 239.02,-146.34 236.03,-132.97"/>
<polygon fill="black" stroke="black" points="239.37,-131.88 233.77,-122.89 232.54,-133.41 239.37,-131.88"/>
<text text-anchor="middle" x="252.5" y="-144.8" font-family="Times,serif" font-size="14.00">ε, 5/</text>
</g>
<!-- q16 -->
<g id="node12" class="node">
<title>q16</title>
<ellipse fill="none" stroke="black" cx="101" cy="-105" rx="27" ry="18"/>
<text text-anchor="middle" x="101" y="-101.3" font-family="Times,serif" font-size="14.00">q16</text>
</g>
<!-- q8&#45;&gt;q16 -->
<g id="edge19" class="edge">
<title>q8&#45;&gt;q16</title>
<path fill="none" stroke="black" d="M101,-173.8C101,-162.16 101,-146.55 101,-133.24"/>
<polygon fill="black" stroke="black" points="104.5,-133.18 101,-123.18 97.5,-133.18 104.5,-133.18"/>
<text text-anchor="middle" x="113.5" y="-144.8" font-family="Times,serif" font-size="14.00">ε, 6/</text>
</g>
<!-- q14 -->
<g id="node11" class="node">
<title>q14</title>
<ellipse fill="none" stroke="black" cx="172" cy="-18" rx="27" ry="18"/>
<text text-anchor="middle" x="172" y="-14.3" font-family="Times,serif" font-size="14.00">q14</text>
</g>
<!-- q13&#45;&gt;q14 -->
<g id="edge17" class="edge">
<title>q13&#45;&gt;q14</title>
<path fill="none" stroke="black" d="M219.36,-88.41C210.75,-75.79 198.47,-57.79 188.57,-43.28"/>
<polygon fill="black" stroke="black" points="191.29,-41.07 182.77,-34.78 185.51,-45.01 191.29,-41.07"/>
<text text-anchor="middle" x="216.5" y="-57.8" font-family="Times,serif" font-size="14.00">ε, 1/</text>
</g>
<!-- q14&#45;&gt;q1 -->
<g id="edge18" class="edge">
<title>q14&#45;&gt;q1</title>
<path fill="none" stroke="black" d="M168.18,-35.95C160.41,-71.37 142.99,-155.96 137,-228 131.25,-297.12 132.91,-315.12 141,-384 142.59,-397.57 145.48,-412.38 148.29,-425.02"/>
<polygon fill="black" stroke="black" points="144.95,-426.1 150.61,-435.05 151.77,-424.52 144.95,-426.1"/>
<text text-anchor="middle" x="149.5" y="-231.8" font-family="Times,serif" font-size="14.00">ε, 0/</text>
</g>
<!-- q17 -->
<g id="node13" class="node">
<title>q17</title>
<ellipse fill="none" stroke="black" cx="81" cy="-18" rx="27" ry="18"/>
<text text-anchor="middle" x="81" y="-14.3" font-family="Times,serif" font-size="14.00">q17</text>
</g>
<!-- q16&#45;&gt;q17 -->
<g id="edge20" class="edge">
<title>q16&#45;&gt;q17</title>
<path fill="none" stroke="black" d="M96.95,-86.8C94.2,-75.09 90.49,-59.34 87.35,-45.97"/>
<polygon fill="black" stroke="black" points="90.67,-44.82 84.97,-35.89 83.86,-46.42 90.67,-44.82"/>
<text text-anchor="middle" x="104.5" y="-57.8" font-family="Times,serif" font-size="14.00">ε, 1/</text>
</g>
<!-- q17&#45;&gt;q1 -->
<g id="edge21" class="edge">
<title>q17&#45;&gt;q1</title>
<path fill="none" stroke="black" d="M70.12,-34.81C59.84,-51.31 46,-78.31 46,-104 46,-367 46,-367 46,-367 46,-405.29 86.78,-429.95 118.68,-443.38"/>
<polygon fill="black" stroke="black" points="117.66,-446.74 128.24,-447.19 120.25,-440.24 117.66,-446.74"/>
<text text-anchor="middle" x="58.5" y="-231.8" font-family="Times,serif" font-size="14.00">ε, 0/</text>
</g>
</g>
</svg>
