<?xml version="1.0" encoding="UTF-8" standalone="no"?>
<!DOCTYPE svg PUBLIC "-//W3C//DTD SVG 1.1//EN"
 "http://www.w3.org/Graphics/SVG/1.1/DTD/svg11.dtd">
<!-- Generated by graphviz version 2.43.0 (0)
 -->
<!-- Title: PDA Pages: 1 -->
<svg width="783pt" height="922pt"
 viewBox="0.00 0.00 783.00 922.00" xmlns="http://www.w3.org/2000/svg" xmlns:xlink="http://www.w3.org/1999/xlink">
<g id="graph0" class="graph" transform="scale(1 1) rotate(0) translate(4 918)">
<title>PDA</title>
<polygon fill="white" stroke="transparent" points="-4,4 -4,-918 779,-918 779,4 -4,4"/>
<!-- q0 -->
<g id="node1" class="node">
<title>q0</title>
<ellipse fill="none" stroke="black" cx="366" cy="-896" rx="27" ry="18"/>
<text text-anchor="middle" x="366" y="-892.3" font-family="Times,serif" font-size="14.00">q0</text>
</g>
<!-- q2 -->
<g id="node3" class="node">
<title>q2</title>
<ellipse fill="none" stroke="black" cx="366" cy="-809" rx="27" ry="18"/>
<text text-anchor="middle" x="366" y="-805.3" font-family="Times,serif" font-size="14.00">q2</text>
</g>
<!-- q0&#45;&gt;q2 -->
<g id="edge1" class="edge">
<title>q0&#45;&gt;q2</title>
<path fill="none" stroke="black" d="M341.74,-887.67C319.07,-879.45 290.35,-864.65 302,-845 308.61,-833.85 320.16,-826.02 331.65,-820.64"/>
<polygon fill="black" stroke="black" points="333.29,-823.75 341.18,-816.68 330.6,-817.29 333.29,-823.75"/>
<text text-anchor="middle" x="323" y="-848.8" font-family="Times,serif" font-size="14.00">a, x/2 x</text>
</g>
<!-- q0&#45;&gt;q2 -->
<g id="edge2" class="edge">
<title>q0&#45;&gt;q2</title>
<path fill="none" stroke="black" d="M366,-877.8C366,-866.16 366,-850.55 366,-837.24"/>
<polygon fill="black" stroke="black" points="369.5,-837.18 366,-827.18 362.5,-837.18 369.5,-837.18"/>
<text text-anchor="middle" x="387.5" y="-848.8" font-family="Times,serif" font-size="14.00">b, x/2 x</text>
</g>
<!-- q0&#45;&gt;q2 -->
<g id="edge3" class="edge">
<title>q0&#45;&gt;q2</title>
<path fill="none" stroke="black" d="M386.67,-884.2C395.59,-878.34 405.08,-870.2 410,-860 416.08,-847.39 406.57,-835.53 394.86,-826.52"/>
<polygon fill="black" stroke="black" points="396.77,-823.59 386.56,-820.77 392.78,-829.34 396.77,-823.59"/>
<text text-anchor="middle" x="426.5" y="-848.8" font-family="Times,serif" font-size="14.00">c, x/x</text>
</g>
<!-- q1 -->
<g id="node2" class="node">
<title>q1</title>
<ellipse fill="none" stroke="black" cx="260" cy="-22" rx="27" ry="18"/>
<ellipse fill="none" stroke="black" cx="260" cy="-22" rx="31" ry="22"/>
<text text-anchor="middle" x="260" y="-18.3" font-family="Times,serif" font-size="14.00">q1</text>
</g>
<!-- q2&#45;&gt;q1 -->
<g id="edge17" class="edge">
<title>q2&#45;&gt;q1</title>
<path fill="none" stroke="black" d="M339.09,-807.51C254.56,-805.24 0,-792.64 0,-723 0,-723 0,-723 0,-112 0,-81.2 20.88,-76.6 48,-62 102.15,-32.85 174.13,-25.05 218.74,-23.21"/>
<polygon fill="black" stroke="black" points="219.04,-26.7 228.92,-22.87 218.81,-19.7 219.04,-26.7"/>
<text text-anchor="middle" x="12.5" y="-413.8" font-family="Times,serif" font-size="14.00">ε, 0/</text>
</g>
<!-- q2&#45;&gt;q2 -->
<g id="edge4" class="edge">
<title>q2&#45;&gt;q2</title>
<path fill="none" stroke="black" d="M393.24,-810.57C403.02,-810.61 411,-810.08 411,-809 411,-808.34 408.04,-807.89 403.51,-807.64"/>
<polygon fill="black" stroke="black" points="403.31,-804.14 393.24,-807.43 403.16,-811.14 403.31,-804.14"/>
<text text-anchor="middle" x="426.5" y="-805.3" font-family="Times,serif" font-size="14.00">a, x/x</text>
</g>
<!-- q2&#45;&gt;q2 -->
<g id="edge6" class="edge">
<title>q2&#45;&gt;q2</title>
<path fill="none" stroke="black" d="M392.93,-811.71C416,-812.79 442,-811.89 442,-809 442,-806.53 422.98,-805.51 403.03,-805.95"/>
<polygon fill="black" stroke="black" points="402.81,-802.45 392.93,-806.29 403.05,-809.45 402.81,-802.45"/>
<text text-anchor="middle" x="457.5" y="-805.3" font-family="Times,serif" font-size="14.00">c, x/x</text>
</g>
<!-- q2&#45;&gt;q2 -->
<g id="edge7" class="edge">
<title>q2&#45;&gt;q2</title>
<path fill="none" stroke="black" d="M392.53,-812.43C426.58,-814.94 473,-813.8 473,-809 473,-804.67 435.21,-803.32 402.8,-804.94"/>
<polygon fill="black" stroke="black" points="402.3,-801.46 392.53,-805.57 402.72,-808.45 402.3,-801.46"/>
<text text-anchor="middle" x="488.5" y="-805.3" font-family="Times,serif" font-size="14.00">a, x/x</text>
</g>
<!-- q2&#45;&gt;q2 -->
<g id="edge8" class="edge">
<title>q2&#45;&gt;q2</title>
<path fill="none" stroke="black" d="M392.58,-812.99C436.34,-817.07 504,-815.74 504,-809 504,-802.76 446.01,-801.15 402.68,-804.19"/>
<polygon fill="black" stroke="black" points="402.26,-800.71 392.58,-805.01 402.83,-807.69 402.26,-800.71"/>
<text text-anchor="middle" x="520" y="-805.3" font-family="Times,serif" font-size="14.00">b, x/x</text>
</g>
<!-- q2&#45;&gt;q2 -->
<g id="edge9" class="edge">
<title>q2&#45;&gt;q2</title>
<path fill="none" stroke="black" d="M392.38,-813.4C445.31,-819.2 536,-817.74 536,-809 536,-800.79 455.96,-799 402.38,-803.62"/>
<polygon fill="black" stroke="black" points="402,-800.14 392.38,-804.6 402.67,-807.11 402,-800.14"/>
<text text-anchor="middle" x="551.5" y="-805.3" font-family="Times,serif" font-size="14.00">c, x/x</text>
</g>
<!-- q5 -->
<g id="node4" class="node">
<title>q5</title>
<ellipse fill="none" stroke="black" cx="424" cy="-374" rx="27" ry="18"/>
<text text-anchor="middle" x="424" y="-370.3" font-family="Times,serif" font-size="14.00">q5</text>
</g>
<!-- q2&#45;&gt;q5 -->
<g id="edge18" class="edge">
<title>q2&#45;&gt;q5</title>
<path fill="none" stroke="black" d="M385.04,-795.85C392.78,-789.91 401.06,-782.08 406,-773 424.69,-738.68 454.16,-463.98 457,-425 457.48,-418.35 459.46,-416.2 457,-410 454.92,-404.76 451.64,-399.85 447.94,-395.46"/>
<polygon fill="black" stroke="black" points="450.43,-392.99 441,-388.16 445.36,-397.82 450.43,-392.99"/>
<text text-anchor="middle" x="460" y="-587.8" font-family="Times,serif" font-size="14.00">ε, 2/5 2</text>
</g>
<!-- q2&#45;&gt;q5 -->
<g id="edge19" class="edge">
<title>q2&#45;&gt;q5</title>
<path fill="none" stroke="black" d="M392.14,-804.09C432.41,-796.42 505,-775.33 505,-723 505,-723 505,-723 505,-460 505,-429.41 477.16,-405.47 454.13,-390.9"/>
<polygon fill="black" stroke="black" points="455.66,-387.74 445.28,-385.6 452.06,-393.74 455.66,-387.74"/>
<text text-anchor="middle" x="526" y="-587.8" font-family="Times,serif" font-size="14.00">ε, 2/5 2</text>
</g>
<!-- q2&#45;&gt;q5 -->
<g id="edge20" class="edge">
<title>q2&#45;&gt;q5</title>
<path fill="none" stroke="black" d="M392.93,-806.85C421.64,-804.36 467.14,-796.65 498,-773 542.21,-739.13 543.15,-643.69 548,-599 557.36,-512.84 564,-468.44 500,-410 488.06,-399.1 472.13,-391.06 457.95,-385.45"/>
<polygon fill="black" stroke="black" points="459.07,-382.14 448.47,-381.96 456.64,-388.7 459.07,-382.14"/>
<text text-anchor="middle" x="570" y="-587.8" font-family="Times,serif" font-size="14.00">ε, 2/5 2</text>
</g>
<!-- q7 -->
<g id="node5" class="node">
<title>q7</title>
<ellipse fill="none" stroke="black" cx="286" cy="-722" rx="27" ry="18"/>
<text text-anchor="middle" x="286" y="-718.3" font-family="Times,serif" font-size="14.00">q7</text>
</g>
<!-- q2&#45;&gt;q7 -->
<g id="edge5" class="edge">
<title>q2&#45;&gt;q7</title>
<path fill="none" stroke="black" d="M339.51,-805.52C301.54,-801.35 234.61,-791.52 220,-773 207.07,-756.6 230.06,-742.72 252.37,-733.77"/>
<polygon fill="black" stroke="black" points="253.65,-737.03 261.78,-730.25 251.19,-730.48 253.65,-737.03"/>
<text text-anchor="middle" x="241.5" y="-761.8" font-family="Times,serif" font-size="14.00">b, x/7 x</text>
</g>
<!-- q9 -->
<g id="node7" class="node">
<title>q9</title>
<ellipse fill="none" stroke="black" cx="429" cy="-287" rx="27" ry="18"/>
<text text-anchor="middle" x="429" y="-283.3" font-family="Times,serif" font-size="14.00">q9</text>
</g>
<!-- q5&#45;&gt;q9 -->
<g id="edge10" class="edge">
<title>q5&#45;&gt;q9</title>
<path fill="none" stroke="black" d="M425.01,-355.8C425.7,-344.16 426.61,-328.55 427.4,-315.24"/>
<polygon fill="black" stroke="black" points="430.9,-315.36 427.99,-305.18 423.91,-314.95 430.9,-315.36"/>
<text text-anchor="middle" x="442" y="-326.8" font-family="Times,serif" font-size="14.00">b, x/x</text>
</g>
<!-- q7&#45;&gt;q2 -->
<g id="edge12" class="edge">
<title>q7&#45;&gt;q2</title>
<path fill="none" stroke="black" d="M281.59,-740.08C279.92,-750.42 279.73,-763.41 286,-773 295.83,-788.02 313.68,-796.64 330.03,-801.56"/>
<polygon fill="black" stroke="black" points="329.37,-805 339.93,-804.17 331.16,-798.23 329.37,-805"/>
<text text-anchor="middle" x="301.5" y="-761.8" font-family="Times,serif" font-size="14.00">a, x/x</text>
</g>
<!-- q7&#45;&gt;q2 -->
<g id="edge13" class="edge">
<title>q7&#45;&gt;q2</title>
<path fill="none" stroke="black" d="M299.78,-737.64C312.23,-750.87 330.74,-770.54 345.03,-785.72"/>
<polygon fill="black" stroke="black" points="342.66,-788.31 352.07,-793.19 347.76,-783.51 342.66,-788.31"/>
<text text-anchor="middle" x="347" y="-761.8" font-family="Times,serif" font-size="14.00">b, x/x</text>
</g>
<!-- q7&#45;&gt;q2 -->
<g id="edge14" class="edge">
<title>q7&#45;&gt;q2</title>
<path fill="none" stroke="black" d="M312.38,-726.74C331.1,-730.92 354.97,-739.69 367,-758 371.38,-764.66 372.49,-772.97 372.11,-780.89"/>
<polygon fill="black" stroke="black" points="368.62,-780.57 370.91,-790.91 375.57,-781.4 368.62,-780.57"/>
<text text-anchor="middle" x="386.5" y="-761.8" font-family="Times,serif" font-size="14.00">c, x/x</text>
</g>
<!-- q10 -->
<g id="node8" class="node">
<title>q10</title>
<ellipse fill="none" stroke="black" cx="286" cy="-635" rx="27" ry="18"/>
<text text-anchor="middle" x="286" y="-631.3" font-family="Times,serif" font-size="14.00">q10</text>
</g>
<!-- q7&#45;&gt;q10 -->
<g id="edge11" class="edge">
<title>q7&#45;&gt;q10</title>
<path fill="none" stroke="black" d="M286,-703.8C286,-692.16 286,-676.55 286,-663.24"/>
<polygon fill="black" stroke="black" points="289.5,-663.18 286,-653.18 282.5,-663.18 289.5,-663.18"/>
<text text-anchor="middle" x="301.5" y="-674.8" font-family="Times,serif" font-size="14.00">a, x/x</text>
</g>
<!-- q8 -->
<g id="node6" class="node">
<title>q8</title>
<ellipse fill="none" stroke="black" cx="664" cy="-722" rx="27" ry="18"/>
<text text-anchor="middle" x="664" y="-718.3" font-family="Times,serif" font-size="14.00">q8</text>
</g>
<!-- q12 -->
<g id="node10" class="node">
<title>q12</title>
<ellipse fill="none" stroke="black" cx="664" cy="-635" rx="27" ry="18"/>
<text text-anchor="middle" x="664" y="-631.3" font-family="Times,serif" font-size="14.00">q12</text>
</g>
<!-- q8&#45;&gt;q12 -->
<g id="edge15" class="edge">
<title>q8&#45;&gt;q12</title>
<path fill="none" stroke="black" d="M664,-703.8C664,-692.16 664,-676.55 664,-663.24"/>
<polygon fill="black" stroke="black" points="667.5,-663.18 664,-653.18 660.5,-663.18 667.5,-663.18"/>
<text text-anchor="middle" x="680" y="-674.8" font-family="Times,serif" font-size="14.00">b, x/x</text>
</g>
<!-- q15 -->
<g id="node11" class="node">
<title>q15</title>
<ellipse fill="none" stroke="black" cx="430" cy="-200" rx="27" ry="18"/>
<text text-anchor="middle" x="430" y="-196.3" font-family="Times,serif" font-size="14.00">q15</text>
</g>
<!-- q9&#45;&gt;q15 -->
<g id="edge21" class="edge">
<title>q9&#45;&gt;q15</title>
<path fill="none" stroke="black" d="M429.2,-268.8C429.34,-257.16 429.52,-241.55 429.68,-228.24"/>
<polygon fill="black" stroke="black" points="433.18,-228.22 429.8,-218.18 426.18,-228.13 433.18,-228.22"/>
<text text-anchor="middle" x="441.5" y="-239.8" font-family="Times,serif" font-size="14.00">ε, 5/</text>
</g>
<!-- q18 -->
<g id="node13" class="node">
<title>q18</title>
<ellipse fill="none" stroke="black" cx="200" cy="-548" rx="27" ry="18"/>
<text text-anchor="middle" x="200" y="-544.3" font-family="Times,serif" font-size="14.00">q18</text>
</g>
<!-- q10&#45;&gt;q18 -->
<g id="edge27" class="edge">
<title>q10&#45;&gt;q18</title>
<path fill="none" stroke="black" d="M271.41,-619.58C257.82,-606.15 237.38,-585.94 221.84,-570.59"/>
<polygon fill="black" stroke="black" points="224.23,-568.03 214.66,-563.49 219.31,-573.01 224.23,-568.03"/>
<text text-anchor="middle" x="261.5" y="-587.8" font-family="Times,serif" font-size="14.00">ε, 7/</text>
</g>
<!-- q20 -->
<g id="node15" class="node">
<title>q20</title>
<ellipse fill="none" stroke="black" cx="290" cy="-548" rx="27" ry="18"/>
<text text-anchor="middle" x="290" y="-544.3" font-family="Times,serif" font-size="14.00">q20</text>
</g>
<!-- q10&#45;&gt;q20 -->
<g id="edge33" class="edge">
<title>q10&#45;&gt;q20</title>
<path fill="none" stroke="black" d="M286.81,-616.8C287.36,-605.16 288.09,-589.55 288.72,-576.24"/>
<polygon fill="black" stroke="black" points="292.22,-576.33 289.19,-566.18 285.23,-576 292.22,-576.33"/>
<text text-anchor="middle" x="301.5" y="-587.8" font-family="Times,serif" font-size="14.00">ε, 7/</text>
</g>
<!-- q11 -->
<g id="node9" class="node">
<title>q11</title>
<ellipse fill="none" stroke="black" cx="438" cy="-896" rx="27" ry="18"/>
<text text-anchor="middle" x="438" y="-892.3" font-family="Times,serif" font-size="14.00">q11</text>
</g>
<!-- q11&#45;&gt;q11 -->
<g id="edge16" class="edge">
<title>q11&#45;&gt;q11</title>
<path fill="none" stroke="black" d="M462.53,-903.75C473.51,-904.49 483,-901.91 483,-896 483,-892.03 478.72,-889.56 472.57,-888.59"/>
<polygon fill="black" stroke="black" points="472.65,-885.09 462.53,-888.25 472.41,-892.09 472.65,-885.09"/>
<text text-anchor="middle" x="507.5" y="-892.3" font-family="Times,serif" font-size="14.00">b, x/11 x</text>
</g>
<!-- q23 -->
<g id="node17" class="node">
<title>q23</title>
<ellipse fill="none" stroke="black" cx="664" cy="-548" rx="27" ry="18"/>
<text text-anchor="middle" x="664" y="-544.3" font-family="Times,serif" font-size="14.00">q23</text>
</g>
<!-- q12&#45;&gt;q23 -->
<g id="edge39" class="edge">
<title>q12&#45;&gt;q23</title>
<path fill="none" stroke="black" d="M664,-616.8C664,-605.16 664,-589.55 664,-576.24"/>
<polygon fill="black" stroke="black" points="667.5,-576.18 664,-566.18 660.5,-576.18 667.5,-576.18"/>
<text text-anchor="middle" x="676.5" y="-587.8" font-family="Times,serif" font-size="14.00">ε, 8/</text>
</g>
<!-- q16 -->
<g id="node12" class="node">
<title>q16</title>
<ellipse fill="none" stroke="black" cx="373" cy="-113" rx="27" ry="18"/>
<text text-anchor="middle" x="373" y="-109.3" font-family="Times,serif" font-size="14.00">q16</text>
</g>
<!-- q15&#45;&gt;q16 -->
<g id="edge22" class="edge">
<title>q15&#45;&gt;q16</title>
<path fill="none" stroke="black" d="M419.28,-183.01C410.79,-170.35 398.79,-152.45 389.13,-138.06"/>
<polygon fill="black" stroke="black" points="391.96,-135.99 383.48,-129.63 386.14,-139.88 391.96,-135.99"/>
<text text-anchor="middle" x="416.5" y="-152.8" font-family="Times,serif" font-size="14.00">ε, 2/</text>
</g>
<!-- q16&#45;&gt;q1 -->
<g id="edge23" class="edge">
<title>q16&#45;&gt;q1</title>
<path fill="none" stroke="black" d="M355.84,-98.48C337.96,-84.4 309.65,-62.1 288.43,-45.39"/>
<polygon fill="black" stroke="black" points="290.41,-42.5 280.39,-39.06 286.08,-48 290.41,-42.5"/>
<text text-anchor="middle" x="339.5" y="-65.8" font-family="Times,serif" font-size="14.00">ε, 0/</text>
</g>
<!-- q16&#45;&gt;q5 -->
<g id="edge24" class="edge">
<title>q16&#45;&gt;q5</title>
<path fill="none" stroke="black" d="M395.96,-122.48C419.23,-132.55 453.52,-151.88 466,-182 492.54,-246.08 492.7,-275.81 462,-338 459.13,-343.81 454.86,-349.12 450.21,-353.76"/>
<polygon fill="black" stroke="black" points="447.83,-351.19 442.72,-360.47 452.5,-356.4 447.83,-351.19"/>
<text text-anchor="middle" x="506" y="-239.8" font-family="Times,serif" font-size="14.00">ε, 2/5 2</text>
</g>
<!-- q16&#45;&gt;q5 -->
<g id="edge25" class="edge">
<title>q16&#45;&gt;q5</title>
<path fill="none" stroke="black" d="M358.44,-128.55C335.9,-152.88 296.41,-203.82 309,-251 320.5,-294.09 327.03,-306.9 359,-338 368.33,-347.08 380.49,-354.46 391.76,-360.06"/>
<polygon fill="black" stroke="black" points="390.4,-363.29 400.94,-364.35 393.36,-356.95 390.4,-363.29"/>
<text text-anchor="middle" x="330" y="-239.8" font-family="Times,serif" font-size="14.00">ε, 2/5 2</text>
</g>
<!-- q16&#45;&gt;q5 -->
<g id="edge26" class="edge">
<title>q16&#45;&gt;q5</title>
<path fill="none" stroke="black" d="M372.53,-131.06C372.09,-165.03 373.5,-243.15 393,-305 397.6,-319.59 404.54,-335.17 410.69,-347.73"/>
<polygon fill="black" stroke="black" points="407.57,-349.32 415.19,-356.68 413.83,-346.18 407.57,-349.32"/>
<text text-anchor="middle" x="401" y="-239.8" font-family="Times,serif" font-size="14.00">ε, 2/5 2</text>
</g>
<!-- q19 -->
<g id="node14" class="node">
<title>q19</title>
<ellipse fill="none" stroke="black" cx="138" cy="-461" rx="27" ry="18"/>
<text text-anchor="middle" x="138" y="-457.3" font-family="Times,serif" font-size="14.00">q19</text>
</g>
<!-- q18&#45;&gt;q19 -->
<g id="edge28" class="edge">
<title>q18&#45;&gt;q19</title>
<path fill="none" stroke="black" d="M188.63,-531.41C179.28,-518.59 165.88,-500.22 155.21,-485.6"/>
<polygon fill="black" stroke="black" points="158.02,-483.51 149.3,-477.49 152.37,-487.63 158.02,-483.51"/>
<text text-anchor="middle" x="185.5" y="-500.8" font-family="Times,serif" font-size="14.00">ε, 2/</text>
</g>
<!-- q19&#45;&gt;q1 -->
<g id="edge29" class="edge">
<title>q19&#45;&gt;q1</title>
<path fill="none" stroke="black" d="M114.78,-451.69C85.8,-439.66 40,-414.41 40,-375 40,-375 40,-375 40,-112 40,-35.7 155.13,-23.22 218.82,-22.15"/>
<polygon fill="black" stroke="black" points="218.97,-25.65 228.95,-22.07 218.92,-18.65 218.97,-25.65"/>
<text text-anchor="middle" x="52.5" y="-239.8" font-family="Times,serif" font-size="14.00">ε, 0/</text>
</g>
<!-- q19&#45;&gt;q5 -->
<g id="edge30" class="edge">
<title>q19&#45;&gt;q5</title>
<path fill="none" stroke="black" d="M133.24,-443.12C131.3,-432.33 131.09,-418.77 139,-410 155.36,-391.88 313.52,-381 386.92,-376.89"/>
<polygon fill="black" stroke="black" points="387.31,-380.37 397.11,-376.33 386.93,-373.38 387.31,-380.37"/>
<text text-anchor="middle" x="160" y="-413.8" font-family="Times,serif" font-size="14.00">ε, 2/5 2</text>
</g>
<!-- q19&#45;&gt;q5 -->
<g id="edge31" class="edge">
<title>q19&#45;&gt;q5</title>
<path fill="none" stroke="black" d="M157.68,-448.63C178.13,-437.29 211.37,-420.12 242,-410 290.94,-393.83 349.89,-384.19 387.17,-379.24"/>
<polygon fill="black" stroke="black" points="388.07,-382.66 397.54,-377.91 387.18,-375.71 388.07,-382.66"/>
<text text-anchor="middle" x="263" y="-413.8" font-family="Times,serif" font-size="14.00">ε, 2/5 2</text>
</g>
<!-- q19&#45;&gt;q5 -->
<g id="edge32" class="edge">
<title>q19&#45;&gt;q5</title>
<path fill="none" stroke="black" d="M115.9,-450.21C96.67,-440.38 73.8,-424.64 87,-410 106.81,-388.03 303.54,-378.98 386.94,-376.11"/>
<polygon fill="black" stroke="black" points="387.12,-379.6 397,-375.77 386.89,-372.61 387.12,-379.6"/>
<text text-anchor="middle" x="108" y="-413.8" font-family="Times,serif" font-size="14.00">ε, 2/5 2</text>
</g>
<!-- q21 -->
<g id="node16" class="node">
<title>q21</title>
<ellipse fill="none" stroke="black" cx="293" cy="-461" rx="27" ry="18"/>
<text text-anchor="middle" x="293" y="-457.3" font-family="Times,serif" font-size="14.00">q21</text>
</g>
<!-- q20&#45;&gt;q21 -->
<g id="edge34" class="edge">
<title>q20&#45;&gt;q21</title>
<path fill="none" stroke="black" d="M290.61,-529.8C291.02,-518.16 291.57,-502.55 292.04,-489.24"/>
<polygon fill="black" stroke="black" points="295.54,-489.29 292.39,-479.18 288.54,-489.05 295.54,-489.29"/>
<text text-anchor="middle" x="304.5" y="-500.8" font-family="Times,serif" font-size="14.00">ε, 2/</text>
</g>
<!-- q21&#45;&gt;q1 -->
<g id="edge35" class="edge">
<title>q21&#45;&gt;q1</title>
<path fill="none" stroke="black" d="M282.74,-444.1C273.05,-427.54 260,-400.49 260,-375 260,-375 260,-375 260,-112 260,-92.99 260,-71.69 260,-54.7"/>
<polygon fill="black" stroke="black" points="263.5,-54.22 260,-44.22 256.5,-54.22 263.5,-54.22"/>
<text text-anchor="middle" x="272.5" y="-239.8" font-family="Times,serif" font-size="14.00">ε, 0/</text>
</g>
<!-- q21&#45;&gt;q5 -->
<g id="edge36" class="edge">
<title>q21&#45;&gt;q5</title>
<path fill="none" stroke="black" d="M309.3,-446.52C322.36,-436.01 341.34,-421.35 359,-410 370.04,-402.91 382.64,-395.89 393.79,-390.03"/>
<polygon fill="black" stroke="black" points="395.47,-393.1 402.75,-385.39 392.26,-386.88 395.47,-393.1"/>
<text text-anchor="middle" x="380" y="-413.8" font-family="Times,serif" font-size="14.00">ε, 2/5 2</text>
</g>
<!-- q21&#45;&gt;q5 -->
<g id="edge37" class="edge">
<title>q21&#45;&gt;q5</title>
<path fill="none" stroke="black" d="M319.5,-457.43C343.39,-453.84 378.16,-445.29 401,-425 407.98,-418.8 412.98,-410.04 416.5,-401.58"/>
<polygon fill="black" stroke="black" points="419.87,-402.56 419.98,-391.97 413.29,-400.18 419.87,-402.56"/>
<text text-anchor="middle" x="432" y="-413.8" font-family="Times,serif" font-size="14.00">ε, 2/5 2</text>
</g>
<!-- q21&#45;&gt;q5 -->
<g id="edge38" class="edge">
<title>q21&#45;&gt;q5</title>
<path fill="none" stroke="black" d="M288.17,-443.04C286.25,-432.49 285.92,-419.23 293,-410 304.47,-395.07 352.75,-385.13 387.36,-379.78"/>
<polygon fill="black" stroke="black" points="388.23,-383.19 397.61,-378.26 387.2,-376.26 388.23,-383.19"/>
<text text-anchor="middle" x="314" y="-413.8" font-family="Times,serif" font-size="14.00">ε, 2/5 2</text>
</g>
<!-- q24 -->
<g id="node18" class="node">
<title>q24</title>
<ellipse fill="none" stroke="black" cx="664" cy="-461" rx="27" ry="18"/>
<text text-anchor="middle" x="664" y="-457.3" font-family="Times,serif" font-size="14.00">q24</text>
</g>
<!-- q23&#45;&gt;q24 -->
<g id="edge40" class="edge">
<title>q23&#45;&gt;q24</title>
<path fill="none" stroke="black" d="M664,-529.8C664,-518.16 664,-502.55 664,-489.24"/>
<polygon fill="black" stroke="black" points="667.5,-489.18 664,-479.18 660.5,-489.18 667.5,-489.18"/>
<text text-anchor="middle" x="676.5" y="-500.8" font-family="Times,serif" font-size="14.00">ε, 2/</text>
</g>
<!-- q24&#45;&gt;q1 -->
<g id="edge41" class="edge">
<title>q24&#45;&gt;q1</title>
<path fill="none" stroke="black" d="M685.7,-450.21C711.18,-437.07 750,-411.11 750,-375 750,-375 750,-375 750,-112 750,-66.47 418.25,-35.61 300.7,-26.1"/>
<polygon fill="black" stroke="black" points="300.9,-22.61 290.65,-25.3 300.34,-29.59 300.9,-22.61"/>
<text text-anchor="middle" x="762.5" y="-239.8" font-family="Times,serif" font-size="14.00">ε, 0/</text>
</g>
<!-- q24&#45;&gt;q5 -->
<g id="edge42" class="edge">
<title>q24&#45;&gt;q5</title>
<path fill="none" stroke="black" d="M672.15,-443.75C676.28,-432.95 678.93,-419.13 671,-410 644.29,-379.24 523.46,-374.79 461.26,-374.59"/>
<polygon fill="black" stroke="black" points="461.08,-371.09 451.08,-374.59 461.08,-378.09 461.08,-371.09"/>
<text text-anchor="middle" x="697" y="-413.8" font-family="Times,serif" font-size="14.00">ε, 2/5 2</text>
</g>
<!-- q24&#45;&gt;q5 -->
<g id="edge43" class="edge">
<title>q24&#45;&gt;q5</title>
<path fill="none" stroke="black" d="M639.5,-453.23C618.83,-447.1 588.76,-437.18 564,-425 553.05,-419.61 552.07,-415.14 541,-410 514.7,-397.8 483.1,-388.65 459.38,-382.77"/>
<polygon fill="black" stroke="black" points="459.95,-379.3 449.41,-380.37 458.32,-386.11 459.95,-379.3"/>
<text text-anchor="middle" x="585" y="-413.8" font-family="Times,serif" font-size="14.00">ε, 2/5 2</text>
</g>
<!-- q24&#45;&gt;q5 -->
<g id="edge44" class="edge">
<title>q24&#45;&gt;q5</title>
<path fill="none" stroke="black" d="M648.53,-445.93C633.06,-431.99 610.88,-412.36 606,-410 559.27,-387.39 499.16,-379.38 461.09,-376.54"/>
<polygon fill="black" stroke="black" points="461.17,-373.04 450.96,-375.87 460.71,-380.02 461.17,-373.04"/>
<text text-anchor="middle" x="644" y="-413.8" font-family="Times,serif" font-size="14.00">ε, 2/5 2</text>
</g>
</g>
</svg>
